<svg clip-rule="evenodd" fill-rule="evenodd" stroke-linejoin="round" stroke-miterlimit="2" viewBox="0 0 391 86" xmlns="http://www.w3.org/2000/svg"><g fill="#fff" fill-rule="nonzero"><path d="m83.338-25.256c-5.732 17.567-12.497 38.22-18.168 55.804l18.168 36.079c5.774-17.611 12.604-37.92 18.314-55.565z" transform="matrix(-.45025382 .89290061 -.89290061 -.45025382 139.330939 -44.412879)"/><path d="m124.426 84.996h-40.672l-.602-.594-40.402-40.379h40.402c13.028 12.859 28.254 27.996 41.274 40.973z" transform="matrix(1 0 0 -1 0 129.019)"/><path d="m47.348 76.149-6.922 6.929-2.176-2.144-17.859-17.879c-6.426-6.398-12.825-12.75-19.079-19.082l-1.312-1.274c7.109-7.183 14.379-14.406 21.516-21.48l12.371-12.375 6.949-6.953 1.293 1.289 19.371 19.312 17.625 17.625 1.875 1.938.211.211zm9.113-26.871c-1.527-2.36-3.676-4.254-6.211-5.469-5.062-2.723-10.621-3.977-16.141-5.332l-2.48-.61c-2.606-.621-2.606-.613-2.664-3.32-.156-6.797 2.121-9.172 8.926-9.242 5.121-.043 9.125 2.43 12.75 5.746 1.156 1.066 2.25 2.199 3.375 3.301l2.078-2.078c0-.532-.75-1.371-1.688-2.364-5.543-6.082-12.269-9.441-20.656-8.945-7.215.395-12.219 5.082-13.027 12.254-1.379 12.398 8.191 26.684 20.136 30 4.059 1.125 8.102 1.207 11.95-.816 2.339-1.141 4.082-3.231 4.781-5.743.699-2.507.285-5.199-1.129-7.382z" transform="matrix(1 0 0 -1 0 84.969)"/><path d="m46.449 43.989c-3.129.148-5.605-1.278-7.75-3.332-4.281-4.11-6.855-9.27-8.781-15.157 5.797 1.328 11.113 2.836 15.57 6.418 2.676 2.16 4.379 4.891 4.446 8.438.054 2.386-1.079 3.519-3.485 3.633z" transform="matrix(1 0 0 -1 0 69.637)"/><path d="m160.98 7.255v-4.907h-23.625v31.5h22.997v-4.906h-17.149v-8.187h15.211v-4.809h-15.211v-8.691zm34.516 26.593v-31.5h-4.816l-17.371 21.332v-21.332h-5.805v31.5h4.816l17.371-21.328v21.328z" transform="matrix(1 0 0 -1 0 36.196)"/><path d="m206.676 2.929c-1.961.532-3.793 1.469-5.375 2.746l2.023 4.543c1.43-1.105 3.035-1.961 4.75-2.527 1.824-.629 3.742-.945 5.676-.938 2.34 0 4.09.376 5.25 1.126 1.082.609 1.746 1.757 1.734 3 .028.855-.328 1.683-.968 2.25-.731.605-1.578 1.054-2.493 1.312-1 .328-2.347.703-4.046 1.125-1.981.445-3.926 1.016-5.829 1.711-1.476.562-2.789 1.484-3.824 2.676-1.125 1.39-1.695 3.144-1.597 4.929-.016 1.688.476 3.344 1.414 4.747 1.066 1.523 2.554 2.703 4.277 3.398 2.219.898 4.602 1.328 6.996 1.258 1.914-.008 3.82-.258 5.672-.75 1.707-.414 3.336-1.114 4.812-2.071l-1.843-4.543c-1.348.809-2.793 1.442-4.305 1.883-1.426.41-2.898.625-4.379.637-2.312 0-4.027-.391-5.152-1.172-1.082-.66-1.735-1.844-1.719-3.109-.027-.844.328-1.653.969-2.207.719-.61 1.551-1.071 2.453-1.348 1-.332 2.348-.707 4.047-1.125 1.957-.43 3.883-.992 5.761-1.687 1.481-.571 2.797-1.493 3.848-2.68 1.121-1.363 1.692-3.098 1.598-4.86.015-1.683-.477-3.328-1.418-4.726-1.078-1.516-2.57-2.688-4.297-3.375-2.211-.887-4.578-1.316-6.961-1.258-2.395-.012-4.781.34-7.074 1.035z" transform="matrix(1 0 0 -1 0 36.191)"/><path d="m255.887 7.255v-4.907h-23.625v31.5h22.992v-4.906h-17.145v-8.187h15.211v-4.809h-15.211v-8.691zm35.457-4.907-.043 20.879-10.352-17.25h-2.609l-10.352 17.012v-20.641h-5.578v31.5h4.817l12.523-20.902 12.27 20.902h4.816l.043-31.5z" transform="matrix(1 0 0 -1 0 36.196)"/><path d="m331.844 15.918c1.043-1.446 1.57-3.196 1.5-4.973.113-2.512-1.078-4.898-3.149-6.324-2.101-1.5-5.16-2.25-9.179-2.25h-15.629v31.5h14.758c3.718 0 6.585-.727 8.593-2.18 1.957-1.363 3.086-3.621 3-6 .032-1.453-.343-2.887-1.078-4.14-.719-1.196-1.758-2.164-3-2.793 1.656-.489 3.121-1.481 4.184-2.84zm-20.594 13.386v-8.683h8.25c1.641-.102 3.277.281 4.703 1.101 1.078.704 1.703 1.93 1.641 3.219.07 1.301-.555 2.543-1.641 3.262-1.426.816-3.062 1.203-4.703 1.101zm16.23-17.812c0 3.031-2.265 4.547-6.796 4.547h-9.434v-9.047h9.449c4.52 0 6.781 1.5 6.781 4.5z" transform="matrix(1 0 0 -1 0 36.242)"/><path d="m339.629 33.848h5.851v-26.55h16.5v-4.95h-22.351zm50.574-26.593v-4.907h-23.625v31.5h23v-4.906h-17.144v-8.187h15.203v-4.809h-15.203v-8.691z" transform="matrix(1 0 0 -1 0 36.196)"/><path d="m163.816 65.418c1.043-1.446 1.571-3.196 1.5-4.973.11-2.512-1.082-4.898-3.152-6.324-2.098-1.5-5.16-2.25-9.18-2.25h-15.629v31.5h14.758c3.723 0 6.586-.727 8.598-2.18 1.953-1.363 3.082-3.621 3-6 .027-1.453-.348-2.887-1.082-4.14-.715-1.196-1.758-2.164-3-2.793 1.656-.489 3.121-1.481 4.187-2.84zm-20.613 13.386v-8.683h8.25c1.645-.102 3.277.281 4.703 1.101 1.082.704 1.707 1.93 1.645 3.219.07 1.301-.555 2.543-1.645 3.262-1.41.809-3.031 1.191-4.656 1.101zm16.246-17.812c0 3.031-2.265 4.547-6.793 4.547h-9.453v-9.047h9.453c4.528 0 6.793 1.5 6.793 4.5z" transform="matrix(1 0 0 -1 0 135.242)"/><path d="m171.602 83.348h5.847v-26.55h16.5v-4.95h-22.347z" transform="matrix(1 0 0 -1 0 135.196)"/><path d="m204 53.492c-2.52 1.336-4.625 3.344-6.074 5.805-2.942 5.144-2.942 11.457 0 16.601 1.449 2.461 3.554 4.469 6.074 5.809 5.453 2.789 11.914 2.789 17.371 0 2.516-1.336 4.617-3.336 6.074-5.785 2.942-5.161 2.942-11.489 0-16.649-1.457-2.449-3.558-4.449-6.074-5.781-5.457-2.793-11.918-2.793-17.371 0zm14.355 4.453c1.661.926 3.032 2.297 3.961 3.961 1.914 3.551 1.914 7.832 0 11.383-.929 1.664-2.3 3.035-3.961 3.961-3.543 1.89-7.796 1.89-11.339 0-1.664-.926-3.036-2.297-3.961-3.961-1.914-3.551-1.914-7.832 0-11.383.922-1.66 2.289-3.031 3.945-3.961 3.543-1.891 7.797-1.891 11.34 0z" transform="matrix(1 0 0 -1 0 135.195)"/><path d="m241.824 53.473c-2.496 1.34-4.57 3.34-6 5.781-2.926 5.164-2.926 11.484 0 16.649 1.449 2.445 3.543 4.445 6.051 5.785 2.652 1.414 5.617 2.136 8.625 2.09 2.422.031 4.824-.43 7.066-1.348 2.079-.867 3.93-2.207 5.399-3.918l-3.75-3.555c-2.133 2.399-5.207 3.746-8.414 3.692-2.024.035-4.024-.453-5.805-1.418-1.68-.914-3.066-2.278-4.008-3.938-1.918-3.566-1.918-7.863 0-11.429.93-1.657 2.301-3.02 3.961-3.938 1.781-.961 3.781-1.449 5.805-1.418 3.219-.047 6.297 1.324 8.418 3.75l3.75-3.598c-1.477-1.714-3.336-3.054-5.426-3.918-2.246-.918-4.656-1.378-7.086-1.347-2.992-.043-5.945.672-8.586 2.078z" transform="matrix(1 0 0 -1 0 135.176)"/><path d="m279.422 65.032-4.996-5.129v-8.055h-5.852v31.5h5.852v-16.156l15.57 16.156h6.57l-13.23-14.086 14.039-17.414h-6.84z" transform="matrix(1 0 0 -1 0 135.196)"/></g></svg>